HIERARCHY
ROOT root
{
	OFFSET 0.000000 0.000000 0.000000
	CHANNELS 6 Xposition Yposition Zposition Zrotation Yrotation Xrotation
	JOINT lhip
	{
		OFFSET 0.058581 -0.082280 -0.017664
		CHANNELS 3 Zrotation Yrotation Xrotation
		JOINT lknee
		{
			OFFSET 0.043451 -0.386469 0.008037
			CHANNELS 3 Zrotation Yrotation Xrotation
			JOINT lankle
			{
				OFFSET -0.014790 -0.426874 -0.037428
				CHANNELS 3 Zrotation Yrotation Xrotation
				JOINT ltoe
				{
					OFFSET 0.041054 -0.060286 0.122042
					CHANNELS 3 Zrotation Yrotation Xrotation
					End Site
					{
						OFFSET 0.000000 0.000000 0.000000
					}
				}
			}
		}
	}
	JOINT rhip
	{
		OFFSET -0.060310 -0.090513 -0.013543
		CHANNELS 3 Zrotation Yrotation Xrotation
		JOINT rknee
		{
			OFFSET -0.043257 -0.383688 -0.004843
			CHANNELS 3 Zrotation Yrotation Xrotation
			JOINT rankle
			{
				OFFSET 0.019056 -0.420046 -0.034562
				CHANNELS 3 Zrotation Yrotation Xrotation
				JOINT rtoe
				{
					OFFSET -0.034840 -0.062106 0.130323
					CHANNELS 3 Zrotation Yrotation Xrotation
					End Site
					{
						OFFSET 0.000000 0.000000 0.000000
					}
				}
			}
		}
	}
	JOINT lowerback
	{
		OFFSET 0.004439 0.124404 -0.038385
		CHANNELS 3 Zrotation Yrotation Xrotation
		JOINT upperback
		{
			OFFSET 0.004488 0.137956 0.026820
			CHANNELS 3 Zrotation Yrotation Xrotation
			JOINT chest
			{
				OFFSET -0.002265 0.056032 0.002855
				CHANNELS 3 Zrotation Yrotation Xrotation
				JOINT lowerneck
				{
					OFFSET -0.013390 0.211636 -0.033468
					CHANNELS 3 Zrotation Yrotation Xrotation
					JOINT upperneck
					{
						OFFSET 0.010113 0.088937 0.050410
						CHANNELS 3 Zrotation Yrotation Xrotation
						End Site
						{
							OFFSET 0.000000 0.000000 0.000000
						}
					}
				}
				JOINT lclavicle
				{
					OFFSET 0.071702 0.114000 -0.018898
					CHANNELS 3 Zrotation Yrotation Xrotation
					JOINT lshoulder
					{
						OFFSET 0.122921 0.045205 -0.019046
						CHANNELS 3 Zrotation Yrotation Xrotation
						JOINT lelbow
						{
							OFFSET 0.255332 -0.015649 -0.022946
							CHANNELS 3 Zrotation Yrotation Xrotation
							JOINT lwrist
							{
								OFFSET 0.265709 0.012698 -0.007375
								CHANNELS 3 Zrotation Yrotation Xrotation
								End Site
								{
									OFFSET 0.000000 0.000000 0.000000
								}
							}
						}
					}
				}
				JOINT rclavicle
				{
					OFFSET -0.082954 0.112472 -0.023707
					CHANNELS 3 Zrotation Yrotation Xrotation
					JOINT rshoulder
					{
						OFFSET -0.113228 0.046853 -0.008472
						CHANNELS 3 Zrotation Yrotation Xrotation
						JOINT relbow
						{
							OFFSET -0.260127 -0.014369 -0.031269
							CHANNELS 3 Zrotation Yrotation Xrotation
							JOINT rwrist
							{
								OFFSET -0.269108 0.006794 -0.006027
								CHANNELS 3 Zrotation Yrotation Xrotation
								End Site
								{
									OFFSET 0.000000 0.000000 0.000000
								}
							}
						}
					}
				}
			}
		}
	}
}
MOTION
Frames: 14
Frame Time: 0.033333
0.100395 -0.142228 0.933622 -177.680061 -0.033150 92.029275 12.057144 1.934988 -20.020967 -7.042257 -0.866383 30.146538 -0.936642 -0.766705 -17.409802 0.000000 -0.000000 0.000000 -13.747276 -7.475474 -20.020256 -0.761117 -6.846502 29.462023 5.161064 1.726916 -15.539787 0.000000 -0.000000 0.000000 1.264542 4.330761 13.919407 3.835235 -5.218499 12.171048 1.468232 0.165037 -9.541624 3.323826 10.679239 15.080254 2.413814 -0.961121 19.250588 -15.051865 -27.721469 1.425651 -82.378521 -26.460435 28.200176 3.501240 -12.562675 13.432239 -12.659549 6.178102 -29.970526 19.874637 26.949802 8.558635 74.005307 31.417303 17.861907 -11.336330 4.507018 -19.081289 18.631921 4.801395 -51.540717 
0.099872 -0.142111 0.933628 -177.656014 -0.069167 91.879501 11.933443 2.179444 -19.963648 -6.916019 -0.750519 30.369881 -0.703338 -1.074748 -17.326597 0.000000 -0.000000 0.000000 -13.808333 -7.773140 -19.876971 -0.819389 -7.056406 29.488604 4.937975 2.011971 -15.423474 0.000000 -0.000000 0.000000 1.476767 4.340990 14.157555 3.646164 -5.244726 11.841885 1.348657 0.379255 -9.229322 2.988133 10.433024 14.910360 2.830668 -1.064685 19.496820 -14.939898 -28.203997 1.804127 -82.171833 -26.700954 27.688577 3.439026 -12.652143 13.513103 -12.541157 6.221713 -29.751017 19.873213 27.149875 8.922647 73.848237 31.529829 17.145899 -11.403378 4.831079 -18.957599 18.102371 4.663620 -51.706661 
0.099582 -0.142071 0.933640 -177.680746 -0.006061 91.888328 11.971258 2.242716 -19.956359 -6.912230 -0.740900 30.343737 -0.640814 -1.102500 -17.380793 0.000000 -0.000000 0.000000 -13.719424 -7.745549 -19.874613 -0.850684 -7.080331 29.428778 4.813815 1.916016 -15.411549 0.000000 -0.000000 0.000000 1.465861 4.372141 14.325424 3.672781 -5.200210 11.548406 1.404287 0.405757 -9.201263 2.893652 10.511538 15.041521 2.891361 -0.878054 19.554118 -15.028142 -28.336179 1.933663 -82.106307 -26.731667 27.588443 3.443124 -12.556754 13.783053 -12.669812 6.319868 -29.541958 20.012738 27.235220 9.065362 73.854984 31.524246 17.013263 -11.675502 4.657912 -18.885488 18.343565 4.829042 -51.959424 
0.098873 -0.142412 0.933756 -177.648043 0.038952 91.988903 11.984868 2.164660 -20.083622 -6.957091 -0.699317 30.334864 -0.618740 -0.984182 -17.364268 0.000000 -0.000000 0.000000 -13.704323 -7.739767 -19.923014 -0.796056 -7.050780 29.296822 4.831141 1.907200 -15.361693 0.000000 -0.000000 0.000000 1.473394 4.500521 14.117179 3.755704 -5.248091 11.540416 1.461859 0.279229 -9.041453 2.865678 10.584206 15.124875 2.894124 -0.797073 19.382300 -15.209602 -28.579260 2.085435 -81.769378 -26.905218 27.558876 3.437377 -12.552291 13.569899 -12.860407 6.380597 -29.212149 20.154380 27.215243 9.174614 73.556340 31.718508 16.923173 -11.529178 4.704789 -18.878824 18.528539 4.833862 -51.995673 
0.098642 -0.142531 0.933816 -177.669732 0.021307 92.036514 11.942840 2.196106 -20.131680 -6.943505 -0.647024 30.350243 -0.623231 -0.979770 -17.391993 0.000000 -0.000000 0.000000 -13.710177 -7.738498 -19.985895 -0.865421 -7.128260 29.288332 4.830387 1.915480 -15.352769 0.000000 -0.000000 0.000000 1.426958 4.531284 14.125284 3.746591 -5.265521 11.405193 1.476113 0.332000 -8.968463 2.900586 10.624275 15.131707 2.934759 -0.876773 19.361028 -15.064942 -28.597865 2.077450 -81.818451 -26.948150 27.638430 3.472770 -12.598127 13.672955 -12.506922 6.656321 -29.166112 20.166807 27.153653 9.127399 73.542628 31.670223 16.922145 -11.388488 4.882472 -18.847031 18.006769 4.744781 -52.487341 
0.098232 -0.142386 0.934028 -177.635678 0.047170 91.970526 11.921133 2.268624 -20.058418 -6.906576 -0.706029 30.348964 -0.633435 -1.129844 -17.385600 0.000000 -0.000000 0.000000 -13.700674 -7.817157 -19.839840 -0.916161 -7.168575 29.186479 4.885752 2.036094 -15.298170 0.000000 -0.000000 0.000000 1.476702 4.581554 14.289040 3.756758 -5.241664 11.309124 1.525171 0.302452 -9.042576 2.780162 10.508293 15.299587 2.921152 -0.905176 19.354196 -15.083253 -28.758992 2.192323 -81.741826 -26.915690 27.529079 3.656963 -12.674550 13.905283 -12.883759 6.733787 -28.695737 20.173591 27.185841 9.056948 73.600639 31.503872 16.743975 -11.589670 4.907604 -18.998272 18.327940 4.747564 -52.324079 
0.097953 -0.142381 0.934112 -177.675953 0.004753 91.950690 11.830117 2.297502 -19.994908 -6.903546 -0.769806 30.311874 -0.568408 -1.050114 -17.381987 0.000000 -0.000000 0.000000 -13.777864 -7.859304 -19.762202 -0.858115 -7.117777 29.084369 4.901811 2.106990 -15.234783 0.000000 -0.000000 0.000000 1.392081 4.641607 14.283589 3.737628 -5.257825 11.312268 1.544274 0.373540 -9.004394 2.828216 10.653583 15.390832 2.975377 -0.872919 19.362266 -14.803723 -28.834424 2.080152 -81.723247 -27.056014 27.491352 3.524075 -12.551106 13.928861 -12.540955 6.966283 -28.529446 20.060198 27.238793 9.188817 73.810794 31.618282 16.755947 -11.736392 5.187359 -19.354540 17.779354 4.276452 -52.856495 
0.097608 -0.142482 0.934243 -177.653760 0.004099 91.975202 11.817706 2.336843 -20.062143 -6.914307 -0.793295 30.390387 -0.582439 -1.167093 -17.370200 0.000000 -0.000000 0.000000 -13.753878 -7.959194 -19.719659 -0.861527 -7.077777 28.937867 4.893493 2.116112 -15.186847 0.000000 -0.000000 0.000000 1.388605 4.717336 14.247520 3.766666 -5.283375 11.302815 1.570345 0.421198 -8.986682 2.773616 10.695463 15.405768 2.947121 -0.907566 19.498380 -14.722491 -28.856451 1.993869 -81.655393 -27.220957 27.423749 3.503607 -12.328212 13.972074 -12.283187 7.051562 -28.262508 19.981654 27.234654 9.238991 73.814511 31.534161 16.834558 -11.672065 5.654352 -19.216658 17.689877 4.181616 -53.601898 
0.097153 -0.142369 0.934226 -177.572932 -0.028823 91.972826 11.747490 2.318229 -20.076939 -6.962752 -0.844055 30.376645 -0.496433 -1.107906 -17.372929 0.000000 -0.000000 0.000000 -13.840380 -8.064971 -19.658233 -0.817742 -7.069003 28.889878 4.940781 2.161881 -15.133423 0.000000 -0.000000 0.000000 1.399528 4.750439 14.149377 3.772372 -5.368326 11.389235 1.552008 0.479782 -8.952234 2.758333 10.784974 15.419635 2.944193 -0.963991 19.567261 -14.557030 -28.926366 1.757997 -81.654913 -27.214054 27.386100 3.660235 -12.134020 14.180010 -12.088456 7.558962 -27.769640 19.971303 27.268906 9.193388 73.903840 31.530103 16.738292 -11.801278 5.691450 -19.372282 18.058170 4.295770 -53.905611 
0.096876 -0.142312 0.934265 -177.547023 -0.016271 91.885188 11.732606 2.390238 -19.997505 -6.962540 -0.889403 30.407152 -0.585836 -1.186637 -17.399997 0.000000 -0.000000 0.000000 -13.850492 -8.107348 -19.529288 -0.892640 -7.113391 28.854302 5.019904 2.393266 -15.137369 0.000000 -0.000000 0.000000 1.392621 4.811722 14.243873 3.829607 -5.368095 11.422509 1.602309 0.560453 -9.082545 2.864687 10.892789 15.582924 2.857920 -1.134281 19.548721 -14.462977 -28.928914 1.720043 -81.532108 -27.397293 27.188049 3.857054 -11.878290 14.132183 -12.783158 7.431895 -27.485069 20.003299 27.218518 9.372687 73.992176 31.657883 16.627073 -11.845085 5.779107 -19.673445 17.788657 4.029865 -54.400803 
0.096175 -0.142313 0.934240 -177.377335 0.011417 91.975507 11.721042 2.373718 -20.184544 -6.961416 -0.869865 30.494777 -0.570175 -1.375675 -17.404397 0.000000 -0.000000 0.000000 -13.876611 -8.328812 -19.552195 -0.883952 -7.263227 28.812604 4.937397 2.424735 -15.130319 0.000000 -0.000000 0.000000 1.535257 4.899661 14.163504 3.871272 -5.325967 11.204993 1.674996 0.459023 -8.979998 2.771968 10.795645 15.652586 2.857385 -1.138893 19.563021 -14.421138 -28.899894 1.738094 -81.487347 -27.552961 26.932756 4.122347 -11.703423 13.830661 -13.791622 6.864003 -27.800156 19.993341 27.086734 9.491858 73.862732 31.675402 16.414269 -11.694791 5.859814 -19.526633 18.001812 4.041641 -54.346813 
0.095631 -0.142313 0.934075 -177.282593 -0.016163 91.969160 11.626914 2.311159 -20.256789 -6.881520 -0.863717 30.576305 -0.552685 -1.421571 -17.335251 0.000000 -0.000000 0.000000 -13.962419 -8.332285 -19.492808 -0.901145 -7.313821 28.780801 4.956659 2.493627 -15.096686 0.000000 -0.000000 0.000000 1.526671 4.913983 14.128310 3.890684 -5.336227 11.212906 1.669489 0.499053 -8.934772 2.958041 10.825302 15.674137 2.802356 -1.310570 19.551406 -14.199059 -28.783082 1.667984 -81.513431 -27.719075 26.851442 4.411077 -11.511712 13.721547 -14.915671 6.148607 -28.342583 19.975205 26.974116 9.548216 73.892111 31.785333 16.434457 -11.674165 5.773930 -19.273071 18.721502 4.243627 -54.496819 
0.095198 -0.142261 0.934106 -177.228363 -0.079309 91.894432 11.586843 2.260871 -20.153933 -6.886716 -0.738378 30.552244 -0.752647 -1.590263 -17.450661 0.000000 -0.000000 0.000000 -14.075962 -8.328158 -19.375647 -1.014484 -7.523694 28.793517 5.023308 2.768841 -15.059223 0.000000 -0.000000 0.000000 1.514444 4.999210 14.154759 3.879184 -5.359325 11.379795 1.692342 0.526096 -9.109578 3.106245 10.913607 15.764089 2.728631 -1.404646 19.568716 -14.110764 -28.735810 1.655846 -81.539549 -27.716296 26.584236 5.036669 -11.383627 13.234440 -16.440007 4.984043 -28.651303 20.020774 27.002302 9.585071 73.914910 31.670155 16.193010 -11.876909 5.702864 -19.689029 19.228835 5.193338 -54.903862 
0.094447 -0.142426 0.934019 -177.064679 -0.030715 91.994951 11.597254 2.184848 -20.425238 -6.823741 -0.606664 30.742417 -0.721011 -1.751916 -17.430099 0.000000 -0.000000 0.000000 -14.092832 -8.332325 -19.417875 -1.066379 -7.769178 28.778454 4.994579 2.798625 -15.064853 0.000000 -0.000000 0.000000 1.586117 4.953112 14.087665 3.940514 -5.289616 11.273294 1.759559 0.507873 -9.120788 3.145986 10.829200 15.878170 2.607598 -1.474333 19.718539 -14.208252 -28.542617 1.849405 -81.640962 -27.884461 26.159760 5.842419 -11.084414 12.593650 -18.288270 3.756741 -29.246897 19.998306 26.861410 9.915919 73.832424 31.817067 16.064970 -11.864294 5.709708 -19.144670 19.669769 5.416301 -55.166614 
